Coordinates
version=1
nRows=15
nColumns=26
inDegrees=yes

Units are S.I. units (second, meters, Newtons, ...)
Angles are in degrees.

endheader
time	pelvis_tilt	pelvis_list	pelvis_rotation	pelvis_tx	pelvis_ty	pelvis_tz	hip_flexion_r	hip_adduction_r	hip_rotation_r	knee_angle_r	knee_angle_r_beta	ankle_angle_r	subtalar_angle_r	mtp_angle_r	hip_flexion_l	hip_adduction_l	hip_rotation_l	knee_angle_l	knee_angle_l_beta	ankle_angle_l	subtalar_angle_l	mtp_angle_l	lumbar_extension	lumbar_bending	lumbar_rotation
      0.70666670	      0.68131029	      3.56865979	      4.97092032	      0.55733875	      0.87403075	     -0.04214942	     -9.60658671	     -8.36906089	    -15.16819370	     45.53772929	      0.79478331	    -15.59609029	      0.00000000	      0.00000000	     24.24084757	      5.39085111	    -11.37814134	     29.02172645	      0.50652468	     -0.12090675	      0.00000000	      0.00000000	    -20.24666730	     -3.27305660	      6.55122067
      0.71737370	      0.54329208	      3.92385573	      4.67216825	      0.55666555	      0.87589534	     -0.04331541	     -6.80679478	     -9.46102705	    -13.76047290	     49.85898000	      0.87020336	    -17.71045812	      0.00000000	      0.00000000	     23.19851055	      5.77678291	    -11.63947822	     28.70669806	      0.50102640	      0.70602978	      0.00000000	      0.00000000	    -20.26344279	     -3.78044494	      5.91200258
      0.72808080	      0.10333220	      4.22781046	      4.37834163	      0.55579132	      0.87703394	     -0.04424860	     -3.59254106	    -10.36378254	    -12.24705032	     53.96417835	      0.94185259	    -18.91790042	      0.00000000	      0.00000000	     22.57100575	      6.14320550	    -11.78965176	     28.44129138	      0.49639418	      1.42153369	      0.00000000	      0.00000000	    -19.89044481	     -4.60201183	      3.32283709
      0.73878790	     -0.12221582	      4.55053053	      4.02358988	      0.55498032	      0.87832777	     -0.04486509	     -0.95898491	    -11.06225979	    -10.74443449	     57.01272830	      0.99505982	    -19.44061326	      0.00000000	      0.00000000	     21.75363824	      6.49781664	    -12.02965434	     28.02682862	      0.48916044	      2.03705059	      0.00000000	      0.00000000	    -19.78984629	     -4.94167945	      3.23260793
      0.74949490	     -0.44810770	      4.62293457	      3.71330514	      0.55312356	      0.87938711	     -0.04544912	      2.30900619	    -11.40382660	     -9.23173668	     60.35202126	      1.05334148	    -19.19008661	      0.00000000	      0.00000000	     21.02130562	      6.60385148	    -12.12540566	     27.68673542	      0.48322469	      2.63581186	      0.00000000	      0.00000000	    -19.69748348	     -5.01827263	      2.96474215
      0.76020200	     -0.84885888	      4.57263354	      3.32561376	      0.55190293	      0.88036627	     -0.04558654	      5.24161736	    -11.26617600	     -7.50738498	     62.71778347	      1.09463182	    -18.71103760	      0.00000000	      0.00000000	     20.52987695	      6.56972949	    -12.10968255	     27.41842809	      0.47854185	      3.23180576	      0.00000000	      0.00000000	    -19.18472018	     -5.06467124	      2.77947254
      0.77090910	     -1.18581723	      4.33474820	      2.88517675	      0.55023867	      0.88177472	     -0.04536256	      8.42761898	    -10.92187752	     -6.05184642	     64.84409918	      1.13174303	    -17.60464638	      0.00000000	      0.00000000	     19.76914649	      6.29803789	    -12.20397220	     27.04816135	      0.47207947	      3.99439029	      0.00000000	      0.00000000	    -19.05385918	     -4.94464490	      2.49500139
      0.78161620	     -1.52212124	      4.24341414	      2.58039238	      0.54905618	      0.88256571	     -0.04541956	     11.09331943	    -10.64269403	     -4.81334652	     66.36334432	      1.15825886	    -16.68356831	      0.00000000	      0.00000000	     19.17791501	      6.20004817	    -12.33473847	     26.65978581	      0.46530104	      4.44313032	      0.00000000	      0.00000000	    -18.77227812	     -4.91656445	      2.19354392
      0.79232320	     -1.77737247	      4.06349530	      2.09290747	      0.54740165	      0.88406757	     -0.04492358	     14.02591675	    -10.24349035	     -3.68613853	     67.52453124	      1.17852540	    -15.46078550	      0.00000000	      0.00000000	     18.18036522	      6.00551245	    -12.46772384	     25.95261043	      0.45295850	      4.99659461	      0.00000000	      0.00000000	    -18.65439095	     -4.86052800	      2.01498459
      0.80303030	     -1.74044066	      3.73275862	      1.76669205	      0.54590990	      0.88605169	     -0.04454228	     16.30192625	     -9.51282567	     -2.75576145	     67.88431349	      1.18480478	    -14.38225301	      0.00000000	      0.00000000	     16.87490648	      5.70505971	    -12.25978352	     25.22449518	      0.44025049	      5.56540332	      0.00000000	      0.00000000	    -18.82326934	     -4.41643137	      1.87931796
      0.81373740	     -1.99613079	      3.61032520	      1.31928516	      0.54439789	      0.88733203	     -0.04395240	     18.83791506	     -8.98539566	     -1.77382166	     68.02564343	      1.18727145	    -13.01575122	      0.00000000	      0.00000000	     15.92927446	      5.54889535	    -12.53589856	     24.54252192	      0.42834781	      5.90998922	      0.00000000	      0.00000000	    -18.69626272	     -4.46790449	      1.72342493
      0.82444440	     -2.10703947	      3.34390467	      1.01039225	      0.54319660	      0.88860497	     -0.04398600	     20.90308346	     -8.43445522	     -1.23314615	     67.56279870	      1.17919329	    -11.71881419	      0.00000000	      0.00000000	     14.78645529	      5.37777686	    -12.44735452	     23.76153741	      0.41471706	      6.33181428	      0.00000000	      0.00000000	    -18.61470433	     -4.04916675	      1.60297594
      0.83515150	     -2.26491052	      3.09584710	      0.67718348	      0.54199077	      0.88972655	     -0.04392752	     23.00344224	     -7.98112946	     -0.93570565	     66.71639955	      1.16442084	    -10.53518667	      0.00000000	      0.00000000	     13.58374964	      5.21594522	    -12.41224584	     22.85746690	      0.39893806	      6.80857058	      0.00000000	      0.00000000	    -18.45506419	     -3.72934260	      1.51679684
      0.84585860	     -2.44545737	      2.93429786	      0.41012405	      0.54091274	      0.89087906	     -0.04372557	     24.79901432	     -7.57713255	     -0.69619633	     65.55978403	      1.14423409	     -9.27059930	      0.00000000	      0.00000000	     12.44175403	      5.15815242	    -12.40299892	     21.88279316	      0.38192679	      6.87944413	      0.00000000	      0.00000000	    -18.37137395	     -3.54789580	      1.41670917
      0.85656570	     -2.67188580	      2.84106854	      0.21193938	      0.53938590	      0.89164022	     -0.04364361	     26.77000047	     -7.34957825	     -0.73020866	     63.85322634	      1.11444904	     -7.93687226	      0.00000000	      0.00000000	     11.28570351	      5.17007566	    -12.48334882	     20.96640467	      0.36593279	      7.33202540	      0.00000000	      0.00000000	    -18.13277939	     -3.40580847	      1.34460475
